<svg width="18" height="18" viewBox="0 0 18 18" fill="none" xmlns="http://www.w3.org/2000/svg">
<path fill-rule="evenodd" clip-rule="evenodd" d="M8.99999 0.666672C4.39762 0.666672 0.666656 4.39763 0.666656 9.00001C0.666656 13.6024 4.39762 17.3333 8.99999 17.3333C13.6024 17.3333 17.3333 13.6024 17.3333 9.00001C17.3333 4.39763 13.6024 0.666672 8.99999 0.666672ZM14.1137 7.03042C14.4066 6.73753 14.4066 6.26265 14.1137 5.96976C13.8208 5.67687 13.346 5.67686 13.0531 5.96975L7.84626 11.1765L4.94707 8.2773C4.65418 7.9844 4.17931 7.9844 3.88641 8.27729C3.59352 8.57018 3.59351 9.04506 3.88641 9.33795L7.31592 12.7675C7.60882 13.0604 8.08369 13.0604 8.37658 12.7675L14.1137 7.03042Z" fill="white"/>
</svg>
