<svg width="18" height="18" viewBox="0 0 18 18" fill="none" xmlns="http://www.w3.org/2000/svg">
<path fill-rule="evenodd" clip-rule="evenodd" d="M0.666656 9C0.666656 4.39762 4.39762 0.666664 8.99999 0.666664C13.6024 0.666664 17.3333 4.39762 17.3333 9C17.3333 13.6024 13.6024 17.3333 8.99999 17.3333C4.39762 17.3333 0.666656 13.6024 0.666656 9ZM9.00783 7.31229C9.47389 7.31229 9.85171 6.93447 9.85171 6.46841C9.85171 6.00235 9.47389 5.62453 9.00783 5.62453H9.00023C8.53417 5.62453 8.15635 6.00235 8.15635 6.46841C8.15635 6.93447 8.53417 7.31229 9.00023 7.31229H9.00783ZM8.16394 12.038C8.16394 12.5041 8.54176 12.8819 9.00783 12.8819C9.47389 12.8819 9.85171 12.5041 9.85171 12.038V9.00006C9.85171 8.53399 9.47389 8.15617 9.00783 8.15617C8.54176 8.15617 8.16394 8.53399 8.16394 9.00006V12.038Z" fill="white"/>
</svg>
