<svg width="14" height="14" viewBox="0 0 14 14" fill="none" xmlns="http://www.w3.org/2000/svg">
<path d="M9.00977 7.125L13.3984 11.5547C13.7266 11.8555 13.7266 12.1562 13.3984 12.457L12.373 13.4824C12.0723 13.8105 11.7715 13.8105 11.4707 13.4824L7.04102 9.09375L2.61133 13.4824C2.31055 13.8105 2.00977 13.8105 1.70898 13.4824L0.683594 12.457C0.355469 12.1562 0.355469 11.8555 0.683594 11.5547L5.07227 7.125L0.683594 2.69531C0.355469 2.39453 0.355469 2.09375 0.683594 1.79297L1.70898 0.767578C2.00977 0.439453 2.31055 0.439453 2.61133 0.767578L7.04102 5.15625L11.4707 0.767578C11.7715 0.439453 12.0723 0.439453 12.373 0.767578L13.3984 1.79297C13.7266 2.09375 13.7266 2.39453 13.3984 2.69531L9.00977 7.125Z" fill="white"/>
</svg>
