<svg width="18" height="16" viewBox="0 0 18 16" fill="none" xmlns="http://www.w3.org/2000/svg">
<path fill-rule="evenodd" clip-rule="evenodd" d="M7.94184 0.785071C8.2632 0.598777 8.62772 0.499901 8.99999 0.499901C9.37226 0.499901 9.73678 0.598777 10.0581 0.785071C10.3793 0.971249 10.6454 1.23773 10.8332 1.55642L10.835 1.55954L17.0524 12.2469C17.2361 12.5744 17.3323 12.944 17.3333 13.319C17.3343 13.694 17.2401 14.0641 17.0582 14.3926C16.8762 14.7213 16.6121 14.9984 16.2896 15.1938C15.9669 15.3893 15.5979 15.4955 15.2198 15.4998L15.2121 15.4999L2.78023 15.4999C2.40203 15.4956 2.03312 15.3893 1.71041 15.1938C1.38789 14.9984 1.12377 14.7213 0.941808 14.3926C0.759924 14.0641 0.665645 13.694 0.666665 13.319C0.667684 12.944 0.763976 12.5745 0.947675 12.2469L0.952797 12.2378L7.16498 1.55955L7.16681 1.55642C7.35455 1.23773 7.62068 0.971249 7.94184 0.785071ZM9.76596 6.48115C9.76596 6.0617 9.42288 5.72166 8.99967 5.72166C8.57647 5.72166 8.23339 6.0617 8.23339 6.48115V9.09808C8.23339 9.51754 8.57647 9.85757 8.99967 9.85757C9.42288 9.85757 9.76596 9.51754 9.76596 9.09808V6.48115ZM8.99967 11.0381C8.57647 11.0381 8.23339 11.3781 8.23339 11.7976C8.23339 12.217 8.57647 12.5571 8.99967 12.5571H9.00627C9.42948 12.5571 9.77256 12.217 9.77256 11.7976C9.77256 11.3781 9.42948 11.0381 9.00627 11.0381H8.99967Z" fill="white"/>
</svg>
