<svg width="18" height="18" viewBox="0 0 18 18" fill="none" xmlns="http://www.w3.org/2000/svg">
<path fill-rule="evenodd" clip-rule="evenodd" d="M0.666656 9C0.666656 4.39763 4.39762 0.666666 8.99999 0.666666C13.6024 0.666666 17.3333 4.39763 17.3333 9C17.3333 13.6024 13.6024 17.3333 8.99999 17.3333C4.39762 17.3333 0.666656 13.6024 0.666656 9ZM9.84389 6.46818C9.84389 6.00212 9.46607 5.6243 9 5.6243C8.53394 5.6243 8.15612 6.00212 8.15612 6.46818V9.50616C8.15612 9.97222 8.53394 10.35 9 10.35C9.46607 10.35 9.84389 9.97222 9.84389 9.50616V6.46818ZM9 11.1939C8.53394 11.1939 8.15612 11.5717 8.15612 12.0378C8.15612 12.5039 8.53394 12.8817 9 12.8817H9.0076C9.47366 12.8817 9.85148 12.5039 9.85148 12.0378C9.85148 11.5717 9.47366 11.1939 9.0076 11.1939H9Z" fill="white"/>
</svg>
